<svg width="239" height="42" viewBox="0 0 239 42" fill="none" xmlns="http://www.w3.org/2000/svg">
<path d="M53 21H178" stroke="#D1D5DB" stroke-width="3"/>
<path d="M53 21H99" stroke="#FFA824" stroke-width="3"/>
<path d="M1.484 20.528C1.484 17.2987 2.06267 14.7693 3.22 12.94C4.396 11.1107 6.33733 10.196 9.044 10.196C11.7507 10.196 13.6827 11.1107 14.84 12.94C16.016 14.7693 16.604 17.2987 16.604 20.528C16.604 23.776 16.016 26.324 14.84 28.172C13.6827 30.02 11.7507 30.944 9.044 30.944C6.33733 30.944 4.396 30.02 3.22 28.172C2.06267 26.324 1.484 23.776 1.484 20.528ZM12.74 20.528C12.74 19.1467 12.6467 17.9893 12.46 17.056C12.292 16.104 11.9373 15.3293 11.396 14.732C10.8733 14.1347 10.0893 13.836 9.044 13.836C7.99867 13.836 7.20533 14.1347 6.664 14.732C6.14133 15.3293 5.78667 16.104 5.6 17.056C5.432 17.9893 5.348 19.1467 5.348 20.528C5.348 21.9467 5.432 23.1413 5.6 24.112C5.768 25.064 6.12267 25.8387 6.664 26.436C7.20533 27.0147 7.99867 27.304 9.044 27.304C10.0893 27.304 10.8827 27.0147 11.424 26.436C11.9653 25.8387 12.32 25.064 12.488 24.112C12.656 23.1413 12.74 21.9467 12.74 20.528ZM19.1096 14.2V10.588H25.8576V31H21.8256V14.2H19.1096Z" fill="#07251F"/>
<path d="M203.484 20.528C203.484 17.2987 204.063 14.7693 205.22 12.94C206.396 11.1107 208.337 10.196 211.044 10.196C213.751 10.196 215.683 11.1107 216.84 12.94C218.016 14.7693 218.604 17.2987 218.604 20.528C218.604 23.776 218.016 26.324 216.84 28.172C215.683 30.02 213.751 30.944 211.044 30.944C208.337 30.944 206.396 30.02 205.22 28.172C204.063 26.324 203.484 23.776 203.484 20.528ZM214.74 20.528C214.74 19.1467 214.647 17.9893 214.46 17.056C214.292 16.104 213.937 15.3293 213.396 14.732C212.873 14.1347 212.089 13.836 211.044 13.836C209.999 13.836 209.205 14.1347 208.664 14.732C208.141 15.3293 207.787 16.104 207.6 17.056C207.432 17.9893 207.348 19.1467 207.348 20.528C207.348 21.9467 207.432 23.1413 207.6 24.112C207.768 25.064 208.123 25.8387 208.664 26.436C209.205 27.0147 209.999 27.304 211.044 27.304C212.089 27.304 212.883 27.0147 213.424 26.436C213.965 25.8387 214.32 25.064 214.488 24.112C214.656 23.1413 214.74 21.9467 214.74 20.528ZM235.306 13.976H226.234V18.764C226.626 18.2787 227.186 17.8867 227.914 17.588C228.642 17.2707 229.416 17.112 230.238 17.112C231.731 17.112 232.954 17.4387 233.906 18.092C234.858 18.7453 235.548 19.5853 235.978 20.612C236.407 21.62 236.622 22.7027 236.622 23.86C236.622 26.0067 236.006 27.7333 234.774 29.04C233.56 30.3467 231.824 31 229.566 31C227.438 31 225.739 30.468 224.47 29.404C223.2 28.34 222.482 26.9493 222.314 25.232H226.122C226.29 25.9787 226.663 26.576 227.242 27.024C227.839 27.472 228.595 27.696 229.51 27.696C230.611 27.696 231.442 27.3507 232.002 26.66C232.562 25.9693 232.842 25.0547 232.842 23.916C232.842 22.7587 232.552 21.8813 231.974 21.284C231.414 20.668 230.583 20.36 229.482 20.36C228.698 20.36 228.044 20.556 227.522 20.948C226.999 21.34 226.626 21.8627 226.402 22.516H222.65V10.532H235.306V13.976Z" fill="#D1D5DB"/>
</svg>
