<svg width="151" height="45" viewBox="0 0 151 45" fill="none" xmlns="http://www.w3.org/2000/svg">
<path d="M50.27 12.06V33H46.07V12.06H50.27ZM72.3296 33H68.1296L58.6196 18.63V33H54.4196V12.03H58.6196L68.1296 26.43V12.03H72.3296V33ZM88.3002 33L80.6802 23.67V33H76.4802V12.06H80.6802V21.45L88.3002 12.06H93.3702L84.7302 22.44L93.6102 33H88.3002ZM100.573 15.45V20.7H107.623V24.03H100.573V29.58H108.523V33H96.3727V12.03H108.523V15.45H100.573ZM125.18 29.01H116.84L115.46 33H111.05L118.58 12.03H123.47L131 33H126.56L125.18 29.01ZM124.04 25.65L121.01 16.89L117.98 25.65H124.04ZM141.044 33.21C139.584 33.21 138.264 32.96 137.084 32.46C135.924 31.96 135.004 31.24 134.324 30.3C133.644 29.36 133.294 28.25 133.274 26.97H137.774C137.834 27.83 138.134 28.51 138.674 29.01C139.234 29.51 139.994 29.76 140.954 29.76C141.934 29.76 142.704 29.53 143.264 29.07C143.824 28.59 144.104 27.97 144.104 27.21C144.104 26.59 143.914 26.08 143.534 25.68C143.154 25.28 142.674 24.97 142.094 24.75C141.534 24.51 140.754 24.25 139.754 23.97C138.394 23.57 137.284 23.18 136.424 22.8C135.584 22.4 134.854 21.81 134.234 21.03C133.634 20.23 133.334 19.17 133.334 17.85C133.334 16.61 133.644 15.53 134.264 14.61C134.884 13.69 135.754 12.99 136.874 12.51C137.994 12.01 139.274 11.76 140.714 11.76C142.874 11.76 144.624 12.29 145.964 13.35C147.324 14.39 148.074 15.85 148.214 17.73H143.594C143.554 17.01 143.244 16.42 142.664 15.96C142.104 15.48 141.354 15.24 140.414 15.24C139.594 15.24 138.934 15.45 138.434 15.87C137.954 16.29 137.714 16.9 137.714 17.7C137.714 18.26 137.894 18.73 138.254 19.11C138.634 19.47 139.094 19.77 139.634 20.01C140.194 20.23 140.974 20.49 141.974 20.79C143.334 21.19 144.444 21.59 145.304 21.99C146.164 22.39 146.904 22.99 147.524 23.79C148.144 24.59 148.454 25.64 148.454 26.94C148.454 28.06 148.164 29.1 147.584 30.06C147.004 31.02 146.154 31.79 145.034 32.37C143.914 32.93 142.584 33.21 141.044 33.21Z" fill="white"/>
<path d="M32 17.7031C32.0001 15.5471 31.3513 13.4413 30.1384 11.6616C28.9256 9.88186 27.2052 8.51116 25.2028 7.72904C23.2004 6.94692 21.0092 6.78985 18.9164 7.27838C16.8234 7.76692 14.9264 8.8783 13.4737 10.4669H0V39H28.448V25.6651C29.5646 24.6631 30.4581 23.4361 31.0701 22.0641C31.6822 20.6922 31.999 19.2063 32 17.7031ZM26.5263 17.7031C26.5285 18.7362 26.2251 19.7468 25.6546 20.6069C25.084 21.4669 24.2722 22.1379 23.3215 22.5347C22.3707 22.9316 21.3242 23.0365 20.3139 22.8363C19.3039 22.6361 18.3756 22.1396 17.6467 21.4098C16.9179 20.68 16.4213 19.7497 16.2196 18.7365C16.0179 17.7235 16.1204 16.673 16.5139 15.7184C16.9074 14.7637 17.5744 13.9476 18.4303 13.3734C19.2864 12.7992 20.2929 12.4927 21.3225 12.4926C22.7008 12.4926 24.0228 13.0413 24.9983 14.0181C25.974 14.9949 26.5235 16.3202 26.5263 17.7031ZM22.9744 33.5079H5.47369V15.9591H10.807C10.704 16.5348 10.6498 17.1183 10.6451 17.7031C10.648 20.5436 11.7738 23.267 13.7756 25.2755C15.7774 27.284 18.4915 28.4137 21.3225 28.4166C21.8761 28.4136 22.4284 28.3665 22.9744 28.2757V33.5079Z" fill="#FFA824"/>
</svg>
