<svg width="103" height="23" viewBox="0 0 103 23" fill="none" xmlns="http://www.w3.org/2000/svg">
<path d="M4.27 1.06V22H0.0700002V1.06H4.27ZM26.3296 22H22.1296L12.6196 7.63V22H8.41961V1.03H12.6196L22.1296 15.43V1.03H26.3296V22ZM42.3002 22L34.6802 12.67V22H30.4802V1.06H34.6802V10.45L42.3002 1.06H47.3702L38.7302 11.44L47.6102 22H42.3002ZM54.5727 4.45V9.7H61.6227V13.03H54.5727V18.58H62.5227V22H50.3727V1.03H62.5227V4.45H54.5727ZM79.1795 18.01H70.8395L69.4595 22H65.0495L72.5795 1.03H77.4695L84.9995 22H80.5595L79.1795 18.01ZM78.0395 14.65L75.0095 5.89L71.9795 14.65H78.0395ZM95.0441 22.21C93.5841 22.21 92.2641 21.96 91.0841 21.46C89.9241 20.96 89.0041 20.24 88.3241 19.3C87.6441 18.36 87.2941 17.25 87.2741 15.97H91.7741C91.8341 16.83 92.1341 17.51 92.6741 18.01C93.2341 18.51 93.9941 18.76 94.9541 18.76C95.9341 18.76 96.7041 18.53 97.2641 18.07C97.8241 17.59 98.1041 16.97 98.1041 16.21C98.1041 15.59 97.9141 15.08 97.5341 14.68C97.1541 14.28 96.6741 13.97 96.0941 13.75C95.5341 13.51 94.7541 13.25 93.7541 12.97C92.3941 12.57 91.2841 12.18 90.4241 11.8C89.5841 11.4 88.8541 10.81 88.2341 10.03C87.6341 9.23 87.3341 8.17 87.3341 6.85C87.3341 5.61 87.6441 4.53 88.2641 3.61C88.8841 2.69 89.7541 1.99 90.8741 1.51C91.9941 1.01 93.2741 0.76 94.7141 0.76C96.8741 0.76 98.6241 1.29 99.9641 2.35C101.324 3.39 102.074 4.85 102.214 6.73H97.5941C97.5541 6.01 97.2441 5.42 96.6641 4.96C96.1041 4.48 95.3541 4.24 94.4141 4.24C93.5941 4.24 92.9341 4.45 92.4341 4.87C91.9541 5.29 91.7141 5.9 91.7141 6.7C91.7141 7.26 91.8941 7.73 92.2541 8.11C92.6341 8.47 93.0941 8.77 93.6341 9.01C94.1941 9.23 94.9741 9.49 95.9741 9.79C97.3341 10.19 98.4441 10.59 99.3041 10.99C100.164 11.39 100.904 11.99 101.524 12.79C102.144 13.59 102.454 14.64 102.454 15.94C102.454 17.06 102.164 18.1 101.584 19.06C101.004 20.02 100.154 20.79 99.0341 21.37C97.9141 21.93 96.5841 22.21 95.0441 22.21Z" fill="white"/>
</svg>
