<svg width="54" height="54" viewBox="0 0 54 54" fill="none" xmlns="http://www.w3.org/2000/svg">
<path fill-rule="evenodd" clip-rule="evenodd" d="M0.333496 26.7134C0.333496 11.9946 12.3026 0.03125 27.0002 0.03125C41.6977 0.03125 53.6668 11.9946 53.6668 26.7134C53.6668 41.4012 41.6977 53.3646 27.0002 53.3646C12.3026 53.3646 0.333496 41.4012 0.333496 26.7134ZM36.7814 29.4122C37.0645 29.1292 37.4249 28.6918 37.5021 28.5889C37.9139 28.0486 38.1199 27.3797 38.1199 26.7134C38.1199 25.9647 37.8882 25.27 37.4506 24.704C37.4147 24.6682 37.3445 24.5918 37.253 24.4922C37.0818 24.3058 36.836 24.0383 36.6012 23.8036C34.4905 21.5395 28.9821 17.8348 26.0993 16.7027C25.6617 16.5252 24.5549 16.1367 23.9628 16.111C23.3966 16.111 22.856 16.2396 22.3412 16.4969C21.6977 16.8571 21.1829 17.4231 20.8998 18.092C20.7196 18.5551 20.4365 19.9444 20.4365 19.9701C20.1533 21.4881 19.9989 23.9579 19.9989 26.6851C19.9989 29.2861 20.1533 31.6505 20.385 33.1941C20.3913 33.2005 20.4135 33.3109 20.4479 33.4824C20.5525 34.0038 20.7703 35.0901 21.0027 35.5353C21.569 36.6159 22.6758 37.2848 23.8599 37.2848H23.9628C24.735 37.2591 26.3567 36.5902 26.3567 36.5645C29.0851 35.4324 34.4648 31.9078 36.6269 29.5665L36.7814 29.4122Z" fill="#FFA824"/>
</svg>
