<svg width="46" height="46" viewBox="0 0 46 46" fill="none" xmlns="http://www.w3.org/2000/svg">
<circle cx="23" cy="23" r="22" stroke="#D1D5DB" stroke-width="2"/>
<path d="M36.7326 14.6694C35.7477 15.1058 34.6897 15.4007 33.5775 15.534C34.7251 14.8473 35.5837 13.7665 35.9931 12.4933C34.9148 13.1337 33.7348 13.5845 32.5041 13.8261C31.6766 12.9425 30.5805 12.3568 29.386 12.16C28.1915 11.9632 26.9654 12.1663 25.8981 12.7377C24.8308 13.3091 23.9821 14.2169 23.4836 15.3202C22.9851 16.4234 22.8648 17.6603 23.1414 18.8389C20.9566 18.7292 18.8193 18.1614 16.8682 17.1722C14.9171 16.183 13.1958 14.7946 11.8159 13.0972C11.3441 13.911 11.0729 14.8546 11.0729 15.8595C11.0723 16.7642 11.2951 17.655 11.7214 18.4529C12.1478 19.2508 12.7644 19.9312 13.5168 20.4336C12.6443 20.4058 11.791 20.1701 11.028 19.7459V19.8167C11.028 21.0855 11.4669 22.3153 12.2703 23.2974C13.0737 24.2794 14.1921 24.9533 15.4358 25.2046C14.6264 25.4237 13.7778 25.4559 12.9541 25.299C13.305 26.3907 13.9886 27.3454 14.909 28.0294C15.8294 28.7134 16.9407 29.0924 18.0873 29.1134C16.1409 30.6413 13.7372 31.4701 11.2628 31.4665C10.8244 31.4666 10.3865 31.441 9.95117 31.3898C12.4629 33.0048 15.3867 33.8618 18.3727 33.8585C28.4809 33.8585 34.0068 25.4865 34.0068 18.2256C34.0068 17.9897 34.0009 17.7514 33.9903 17.5155C35.0652 16.7382 35.993 15.7757 36.7303 14.673L36.7326 14.6694Z" fill="#D1D5DB"/>
</svg>
